<svg width="32" height="32" viewBox="0 0 32 32" fill="none" xmlns="http://www.w3.org/2000/svg">
<g clip-path="url(#clip0_54246_3058)">
<path d="M15.9999 17.2451C15.8004 17.2455 15.6062 17.1835 15.4456 17.0685L7.87712 11.6345C7.77865 11.5638 7.69547 11.4749 7.63235 11.3728C7.56923 11.2708 7.52739 11.1577 7.50922 11.04C7.47254 10.8022 7.53451 10.56 7.6815 10.3666C7.8285 10.1733 8.04848 10.0446 8.29304 10.0089C8.53761 9.97327 8.78674 10.0335 8.98561 10.1764L15.9999 15.2074L23.0141 10.1764C23.1126 10.1057 23.2244 10.0545 23.3433 10.0257C23.4621 9.99698 23.5856 9.99128 23.7067 10.0089C23.8278 10.0266 23.9441 10.0673 24.049 10.1286C24.154 10.19 24.2454 10.2709 24.3182 10.3666C24.391 10.4624 24.4437 10.5711 24.4732 10.6866C24.5028 10.8022 24.5087 10.9222 24.4905 11.04C24.4723 11.1577 24.4305 11.2708 24.3674 11.3728C24.3042 11.4749 24.2211 11.5638 24.1226 11.6346L16.5541 17.0685C16.3936 17.1835 16.1993 17.2455 15.9999 17.2451Z" fill="#7AE229"/>
<path d="M16 22C15.8006 22.0003 15.6063 21.9384 15.4458 21.8234L7.8773 16.3894C7.67843 16.2465 7.54609 16.0326 7.5094 15.7949C7.47272 15.5571 7.53469 15.3149 7.68169 15.1215C7.82868 14.9282 8.04866 14.7995 8.29323 14.7638C8.5378 14.7282 8.78692 14.7884 8.9858 14.9313L16 19.9623L23.0143 14.9313C23.2132 14.7884 23.4623 14.7282 23.7069 14.7638C23.9514 14.7995 24.1714 14.9282 24.3184 15.1215C24.4654 15.3149 24.5274 15.5571 24.4907 15.7949C24.454 16.0326 24.3217 16.2465 24.1228 16.3894L16.5543 21.8234C16.3937 21.9384 16.1995 22.0003 16 22Z" fill="#7AE229"/>
</g>
<defs>
<clipPath id="clip0_54246_3058">
<rect width="17" height="12" fill="white" transform="translate(7.5 10)"/>
</clipPath>
</defs>
</svg>
